<svg xmlns="http://www.w3.org/2000/svg" width="702.964" height="450.99" viewBox="0 0 702.964 450.99">
  <g id="Runestack_Geometric_Logo" data-name="Runestack Geometric Logo" transform="translate(-160.587 -285.911)">
    <path id="Path_2" data-name="Path 2" d="M510.019,333.391c2.143.167,73.031,41.636,81.376,46.084L465.41,451.63c-7.878-4.135-16.659-9.579-24.442-14.078-8.2-4.742-17.9-10.013-25.761-15.125-.157-8.972-.02-18.354-.024-27.359,17.03,9.356,35.6,20.784,52.525,30.629,3.022-2.108,6.252-3.889,9.448-5.725L515.8,397.937c11.509-6.546,24.253-13.63,35.325-20.843-11.3-6.9-30.166-17.933-41.721-23.809-13.284,8.153-29.806,17.416-43.439,25,.1,7.057.05,14.232.07,21.3-17.3-9.215-33.744-19.288-50.641-29.19q.088-13.821-.292-27.641,19.855,11.83,40.184,22.836c4.133-3.118,14.4-8.547,19.206-11.325Z" fill="#3fd0a9"/>
    <path id="Path_3" data-name="Path 3" d="M607.714,388.429l.408.071c1.009,1.662.731,21.768.741,25.32-4.118,2.745-10.323,5.949-14.829,8.591q-17.967,10.738-36.208,21l-95.877,54.5c-14.234-7.686-31.67-18.153-45.729-26.465l-.706-.536c-.675-2.273-.343-22.781-.325-26.775,14.8,7.625,32.966,19,47.852,27.514q51.737-29.277,103.1-59.207C579.955,404.51,593.8,396.029,607.714,388.429Z" fill="#3fd0a9"/>
    <path id="Path_4" data-name="Path 4" d="M510.355,285.911c4.853,2.372,11.427,6.463,16.285,9.3l28.653,16.7c16.523,9.543,38.137,20.838,53.64,30.989l-.093,27.241c-7.214-3.73-17.03-9.995-24.3-14.218l-47.762-27.464c-7.6-4.318-19.394-10.848-26.423-15.654-17.566,11.156-38.925,22.87-57.234,33.694-7.757-4.689-15.6-9.042-23.359-13.827,5.977-3.513,12.608-6.947,18.747-10.486Q479.637,304.394,510.355,285.911Z" fill="#3fd0a9"/>
    <path id="Subtraction_2" data-name="Subtraction 2" d="M-387.263-311.646a7.618,7.618,0,0,1-3.031-.506,4.7,4.7,0,0,1-2.3-2.1c-.96-1.761-1.953-3.57-2.913-5.32l-.009-.017c-3.97-7.231-8.075-14.708-11.626-22.045-5,.212-10.393.239-14.536.239-2.058,0-4.158-.008-6.012-.014h-.077c-1.9-.007-3.869-.013-5.748-.013-.9,0-1.728,0-2.521,0l.073,29.326-8.726.012c-.331-15.364-.31-31.56-.289-47.222v-.01c.011-8.443.022-17.174-.023-25.565,1.974,0,3.943.009,6.027.018h.011c2.119.009,4.309.019,6.481.019,2.118,0,3.977-.009,5.683-.029,1.116-.013,2.249-.032,3.448-.052,2.241-.038,4.558-.077,6.938-.077,5.36,0,12.3.173,18.412,1.525a31.032,31.032,0,0,1,7.788,2.724,16.661,16.661,0,0,1,5.713,4.758,15.479,15.479,0,0,1,2.868,8.127,32.431,32.431,0,0,1-1.687,11.885c-2.013,6.51-7.9,10.064-13.967,12.934,1.815,3.594,3.828,7.421,5.775,11.122,3.513,6.676,7.145,13.58,10.073,19.959h-.187c-.953,0-1.918.082-2.851.16l-.034,0C-385.469-311.723-386.377-311.646-387.263-311.646Zm-47.7-37.233c1.564,0,3.417.032,5.378.065h.007l.619.011c2.272.038,4.7.076,7.205.076a116.272,116.272,0,0,0,15.812-.848,38.83,38.83,0,0,0,6.672-1.453,13.852,13.852,0,0,0,4.77-2.488,21.173,21.173,0,0,0,3.28-5.541,14.373,14.373,0,0,0,1.089-6.294,11.359,11.359,0,0,0-4.156-7.966c-4.123-3.366-9.706-3.83-15.126-3.83-1.1,0-2.2.02-3.267.039-1.044.019-2.03.036-3,.037-3.457,0-6.975.018-10.376.035h-.023c-3.268.017-6.647.034-9.97.035l.131,28.128C-435.621-348.877-435.3-348.879-434.959-348.879Z" transform="translate(605.587 1047.5)" fill="#3fd0a9"/>
    <path id="Path_7" data-name="Path 7" d="M506.315,489.428c2.37.508,95.149,54.548,102.6,59.507l-.1,26.75-14.365-8.491c-36.725-20.757-74.433-43.968-111.355-63.934C488.8,499.229,499.924,493.182,506.315,489.428Z" fill="#3fd0a9"/>
    <path id="Subtraction_1" data-name="Subtraction 1" d="M-435.143-311.825h0L-445-311.98c3.309-8.349,7.17-16.786,10.9-24.946,3.093-6.759,6.292-13.748,9.154-20.638,1.478-3.558,3.094-7.129,4.658-10.582,2.473-5.462,5.029-11.109,7.105-16.854,2.714.133,5.855.151,8.287.151,1.209,0,2.469-.005,3.482-.009h.117c1.141,0,2.218-.009,3.27-.009q.669,0,1.31,0c2.741,6.364,5.522,12.921,8.212,19.262,7.521,17.73,15.3,36.063,23.5,53.329l-9.484.193c-3.024-6.2-5.943-12.545-8.675-18.869l-13.671.077-30.312.007-8,19.042Zm12.876-26.8c6.7,0,13.445.065,20.058.192l15.526.132c-.793-2.108-4.838-11.732-8.866-20.977-2.921-6.7-7.938-18.033-8.721-18.583l-2.549-.24c-3.359,7.673-6.652,15.581-9.836,23.228l-.008.02c-2.22,5.332-4.516,10.846-6.813,16.23h1.209Z" transform="translate(1062.081 1047.405)" fill="#3fd0a9"/>
    <path id="Path_10" data-name="Path 10" d="M547.282,466.957c1.206.048,55.011,31.265,61.657,35.156l-.023,27.561c-4.543-2.965-9.511-5.715-14.229-8.429-7.227-4.866-19.361-11.4-27.187-15.831L524.044,480.65C530.326,476.333,540.422,470.934,547.282,466.957Z" fill="#3fd0a9"/>
    <path id="Path_11" data-name="Path 11" d="M326.054,662.558l14.079.044c5.3,6.693,10.848,15,15.887,22.031l28.91,40.343.1-62.338c2.515-.007,5.43.192,7.973.3l.015,45.989c.021,7.365.384,19.053-.154,25.987-.958.843-1.081.542-2.735.591l-7.73-.013L348.513,689.56c-4.847-6.613-9.55-13.611-14.479-20.062l.05,66.048-7.887-.016Z" fill="#3fd0a9"/>
    <path id="Path_12" data-name="Path 12" d="M511.054,661.657c8.268-1.039,22.282,1.627,28.839,7.046,6.082,5.027,7.031,9.577,7.785,16.755l-8.73-.05-.329-1.671c-1.553-7.94-5.446-10.662-13.037-12.969-10.169-3.091-32.7-.972-30.833,13.766,1.187,9.345,21.264,9.8,28.112,11.515,7.116,1.574,14.56,2.724,20.642,7.282,6.912,5,6.832,16.707,1.415,22.884-7.224,8.239-17.62,9.948-28.008,10.686-17.188,0-34.353-6.311-34.461-26.437l8.8.08c.605,18.992,22.831,21.293,37.23,17.089,2.728-.8,7.739-3.553,9.148-6.169,8.7-16.151-14.469-16.828-24.227-18.634-9.329-1.533-26.582-3.7-28.111-15.716C483.177,670.478,497.766,663.851,511.054,661.657Z" fill="#3fd0a9"/>
    <path id="Path_13" data-name="Path 13" d="M734.782,662.665c11.35-1.069,22.434.886,31.941,7.45,8.458,5.84,11.221,12.348,12.988,22.017l-8.772.088c-1.519-6.164-4.17-11.3-9.5-15.213-12.658-9.291-37.942-8.511-46.928,5.563-8.049,12.607-6.462,32.12,7.4,40.375,9.555,5.69,19.215,6.219,29.988,3.934,11.986-3.129,16.478-9.961,19.282-21.364,2.881.027,5.846.24,8.73.4-3.221,18.431-12.92,27.029-31.452,30.033-21.269,3.448-44.479-7.2-47.425-30.369C697.963,681.418,711.142,666.121,734.782,662.665Z" fill="#3fd0a9"/>
    <path id="Path_14" data-name="Path 14" d="M414.444,662.611l53.613.08.089,7.888-45.176.119-.008,23.3H465l.039,7.948-34.415-.263-7.806-.028-.068,25.863q22.986-.345,45.975-.2l.047,8.116q-27.147-.19-54.294-.038Z" fill="#3fd0a9"/>
    <path id="Path_15" data-name="Path 15" d="M795,662.6l9.234.021q.2,20.227.107,40.457c15.072-13.316,29.5-27.121,44.682-40.391,4.082-.081,7.772.012,11.857.15-11.858,10.6-24.6,21.667-36.088,32.556q8.977,9.44,18.088,18.751L863.551,735.4l-11.825.106c-9.044-8.949-25.528-25.106-33.527-34.576q-7.179,5.918-14.113,12.12c.082,7.371-.018,14.923-.03,22.309l-8.675.079Z" fill="#3fd0a9"/>
    <path id="Path_16" data-name="Path 16" d="M239.448,662.734l8.549-.065c.062,13.067-.21,26.2-.12,39.275.208,15.96,8,25.78,24.371,25.861,25.443.126,26.607-17.795,26.084-37.8-.224-8.565-.178-18.493-.273-27.208,2.747-.151,6.172-.08,8.969-.084l.019,8c-.012,10.488-.092,21.95.019,32.257.395,21.79-14.436,34.909-35.715,33.6-31.342-1.925-33.569-25.067-32.183-50.5C239.559,678.9,239.1,670.147,239.448,662.734Z" fill="#3fd0a9"/>
    <path id="Path_17" data-name="Path 17" d="M415.031,511.272c16.547,10.258,33.932,19.779,50.866,29.476l.082,27.624c-2.739-1.18-13.173-7.57-16.324-9.392L415.1,539.266C414.878,530.18,415.045,520.412,415.031,511.272Z" fill="#3fd0a9"/>
    <path id="Path_18" data-name="Path 18" d="M557.586,662.557q35.742.23,71.486-.015l-.011,8.071-30.053.005-.046,34.71.026,30.142-9.383-.009c-.283-21.314.034-43.491.031-64.889l-32.016.018Z" fill="#3fd0a9"/>
  </g>
</svg>
